HIERARCHY
ROOT Haolin_28_06:Solving:Hips
{
	OFFSET 0.000000 0.000000 0.000000
	CHANNELS 6 Xposition Yposition Zposition Xrotation Yrotation Zrotation
	JOINT Haolin_28_06:Solving:Spine
	{
		OFFSET 0.000000 -12.181966 2.015561
		CHANNELS 6 Xposition Yposition Zposition Xrotation Yrotation Zrotation
		JOINT Haolin_28_06:Solving:Spine1
		{
			OFFSET 0.000000 -8.890296 1.567602
			CHANNELS 6 Xposition Yposition Zposition Xrotation Yrotation Zrotation
			JOINT Haolin_28_06:Solving:Spine2
			{
				OFFSET 0.000000 -8.993092 0.786796
				CHANNELS 6 Xposition Yposition Zposition Xrotation Yrotation Zrotation
				JOINT Haolin_28_06:Solving:Spine3
				{
					OFFSET 0.000000 -9.027443 0.000000
					CHANNELS 6 Xposition Yposition Zposition Xrotation Yrotation Zrotation
					JOINT Haolin_28_06:Solving:Neck
					{
						OFFSET 0.000000 -11.606712 -1.160669
						CHANNELS 6 Xposition Yposition Zposition Xrotation Yrotation Zrotation
						JOINT Haolin_28_06:Solving:Neck1
						{
							OFFSET 0.000000 -7.471592 -0.653680
							CHANNELS 6 Xposition Yposition Zposition Xrotation Yrotation Zrotation
							JOINT Haolin_28_06:Solving:Head
							{
								OFFSET 0.000000 -7.386181 -1.302382
								CHANNELS 6 Xposition Yposition Zposition Xrotation Yrotation Zrotation
								JOINT Haolin_28_06:Solving:HeadEnd
								{
									OFFSET 0.000000 -9.728081 0.000002
									CHANNELS 6 Xposition Yposition Zposition Xrotation Yrotation Zrotation
									End Site
									{
										OFFSET 0.000000 -9.728081 0.000002
									}
								}
							}
						}
					}
					JOINT Haolin_28_06:Solving:RightShoulder
					{
						OFFSET 0.000000 -8.290508 -5.270916
						CHANNELS 6 Xposition Yposition Zposition Xrotation Yrotation Zrotation
						JOINT Haolin_28_06:Solving:RightArm
						{
							OFFSET -19.261074 -0.000008 0.000000
							CHANNELS 6 Xposition Yposition Zposition Xrotation Yrotation Zrotation
							JOINT Haolin_28_06:Solving:RightForeArm
							{
								OFFSET -30.691700 -0.000011 0.000000
								CHANNELS 6 Xposition Yposition Zposition Xrotation Yrotation Zrotation
								JOINT Haolin_28_06:Solving:RightHand
								{
									OFFSET -20.216934 -0.000008 0.000000
									CHANNELS 6 Xposition Yposition Zposition Xrotation Yrotation Zrotation
									JOINT Haolin_28_06:Solving:RightHandThumb1
									{
										OFFSET -4.948814 2.881329 -3.679893
										CHANNELS 6 Xposition Yposition Zposition Xrotation Yrotation Zrotation
										End Site
										{
											OFFSET -7.039886 -0.000004 -7.104978
										}
									}
									JOINT Haolin_28_06:Solving:RightHandMiddle1
									{
										OFFSET -13.196846 -0.000004 0.084595
										CHANNELS 6 Xposition Yposition Zposition Xrotation Yrotation Zrotation
										End Site
										{
											OFFSET -10.002037 -0.000004 0.000000
										}
									}
								}
							}
						}
					}
					JOINT Haolin_28_06:Solving:LeftShoulder
					{
						OFFSET 0.000000 -8.290508 -5.270916
						CHANNELS 6 Xposition Yposition Zposition Xrotation Yrotation Zrotation
						JOINT Haolin_28_06:Solving:LeftArm
						{
							OFFSET 19.261074 -0.000008 0.000000
							CHANNELS 6 Xposition Yposition Zposition Xrotation Yrotation Zrotation
							JOINT Haolin_28_06:Solving:LeftForeArm
							{
								OFFSET 30.691700 -0.000011 0.000000
								CHANNELS 6 Xposition Yposition Zposition Xrotation Yrotation Zrotation
								JOINT Haolin_28_06:Solving:LeftHand
								{
									OFFSET 20.216934 -0.000008 0.000000
									CHANNELS 6 Xposition Yposition Zposition Xrotation Yrotation Zrotation
									JOINT Haolin_28_06:Solving:LeftHandThumb1
									{
										OFFSET 4.948814 2.881329 -3.679893
										CHANNELS 6 Xposition Yposition Zposition Xrotation Yrotation Zrotation
										End Site
										{
											OFFSET 7.039886 -0.000004 -7.104978
										}
									}
									JOINT Haolin_28_06:Solving:LeftHandMiddle1
									{
										OFFSET 13.196846 -0.000004 0.084595
										CHANNELS 6 Xposition Yposition Zposition Xrotation Yrotation Zrotation
										End Site
										{
											OFFSET 10.002037 -0.000004 0.000000
										}
									}
								}
							}
						}
					}
				}
			}
		}
	}
	JOINT Haolin_28_06:Solving:RightUpLeg
	{
		OFFSET -10.083070 0.000000 0.000000
		CHANNELS 6 Xposition Yposition Zposition Xrotation Yrotation Zrotation
		JOINT Haolin_28_06:Solving:RightLeg
		{
			OFFSET 0.000000 47.042522 -0.000008
			CHANNELS 6 Xposition Yposition Zposition Xrotation Yrotation Zrotation
			JOINT Haolin_28_06:Solving:RightFoot
			{
				OFFSET 0.000000 38.766415 -0.000006
				CHANNELS 6 Xposition Yposition Zposition Xrotation Yrotation Zrotation
				JOINT Haolin_28_06:Solving:RightForeFoot
				{
					OFFSET 0.000000 3.531212 -0.000000
					CHANNELS 6 Xposition Yposition Zposition Xrotation Yrotation Zrotation
					JOINT Haolin_28_06:Solving:RightToeBase
					{
						OFFSET 0.000000 0.000000 -13.829352
						CHANNELS 6 Xposition Yposition Zposition Xrotation Yrotation Zrotation
						JOINT Haolin_28_06:Solving:RightToeBaseEnd
						{
							OFFSET 0.000000 0.000000 -4.034167
							CHANNELS 6 Xposition Yposition Zposition Xrotation Yrotation Zrotation
							End Site
							{
								OFFSET 0.000000 -4.034164 0.000004
							}
						}
					}
				}
			}
		}
	}
	JOINT Haolin_28_06:Solving:LeftUpLeg
	{
		OFFSET 10.083070 0.000000 0.000000
		CHANNELS 6 Xposition Yposition Zposition Xrotation Yrotation Zrotation
		JOINT Haolin_28_06:Solving:LeftLeg
		{
			OFFSET 0.000000 47.042522 -0.000008
			CHANNELS 6 Xposition Yposition Zposition Xrotation Yrotation Zrotation
			JOINT Haolin_28_06:Solving:LeftFoot
			{
				OFFSET 0.000000 38.766415 -0.000006
				CHANNELS 6 Xposition Yposition Zposition Xrotation Yrotation Zrotation
				JOINT Haolin_28_06:Solving:LeftForeFoot
				{
					OFFSET 0.000000 3.531212 -0.000000
					CHANNELS 6 Xposition Yposition Zposition Xrotation Yrotation Zrotation
					JOINT Haolin_28_06:Solving:LeftToeBase
					{
						OFFSET 0.000000 0.000000 -13.829352
						CHANNELS 6 Xposition Yposition Zposition Xrotation Yrotation Zrotation
						JOINT Haolin_28_06:Solving:LeftToeBaseEnd
						{
							OFFSET 0.000000 0.000000 -4.855067
							CHANNELS 6 Xposition Yposition Zposition Xrotation Yrotation Zrotation
							End Site
							{
								OFFSET 0.000000 -4.855064 0.000004
							}
						}
					}
				}
			}
		}
	}
}
MOTION
Frames: 5
Frame Time: 0.041667
-61.677673 -178.787720 -77.729446 126.198373 2.103089 -1.197017 -0.000014 -12.181974 2.015549 23.657798 -0.269727 0.173477 -0.000005 -8.890282 1.567579 12.679075 -0.183351 -0.086186 0.000003 -8.993110 0.786834 13.009872 0.163104 6.079848 -0.000012 -9.027403 -0.000013 -3.449483 -0.115236 4.061238 0.000008 -11.606758 -1.160680 -15.874027 2.062233 3.511051 -0.000008 -7.471576 -0.653699 -18.731241 4.504844 -1.362175 -0.000004 -7.386184 -1.302398 -7.818839 0.519255 -1.044963 0.000012 -9.728081 0.000025 0.000007 -0.000001 0.000000 0.000010 -8.290508 -5.270916 -0.000008 16.924649 20.573378 -19.261084 -0.000023 -0.000005 -92.693317 -48.446586 -101.284472 -30.691696 0.000006 -0.000010 -34.696142 -9.072769 -6.230478 -20.216904 -0.000042 0.000010 4.231296 -17.285175 13.982244 -4.948793 2.881327 -3.679898 0.000003 -0.000000 -0.000002 -13.196824 0.000006 0.084584 0.000006 -0.000000 -0.000001 0.000011 -8.290512 -5.270908 -0.000003 -8.427464 -18.221393 19.261078 -0.000026 -0.000010 -83.381536 57.896385 84.673336 30.691711 -0.000012 0.000006 -38.109751 4.419311 3.458749 20.216919 -0.000027 -0.000006 2.138735 12.602575 -9.712728 4.948803 2.881343 -3.679874 -0.000001 0.000003 -0.000005 13.196853 0.000020 0.084600 0.000001 -0.000001 -0.000001 -10.083098 0.000018 0.000008 -86.506730 2.458618 21.741230 -0.000008 47.042500 -0.000005 72.095331 -0.000002 -0.000005 -0.000004 38.766426 -0.000019 -11.336713 5.168661 -3.187690 0.000019 3.531212 -0.000011 -0.000001 -0.000004 0.000001 0.000010 0.000015 -13.829353 3.610173 -0.000000 -0.000001 0.000000 -0.000007 -4.034174 0.000000 0.000003 0.000000 10.083057 -0.000021 -0.000022 -81.496492 -11.637961 -12.409425 0.000003 47.042465 0.000023 67.002865 0.000000 -0.000005 0.000018 38.766415 -0.000064 -16.698846 -15.185715 4.390690 -0.000005 3.531212 -0.000018 -0.000000 -0.000003 -0.000001 -0.000001 0.000010 -13.829362 4.343766 -0.000006 0.000001 -0.000007 0.000008 -4.855067 0.000001 0.000005 0.000001 
-62.126350 -178.795639 -77.709244 126.243985 2.080266 -1.313816 0.000013 -12.181971 2.015599 23.650090 -0.259060 0.169513 -0.000004 -8.890282 1.567584 12.635303 -0.179407 -0.073302 -0.000007 -8.993099 0.786776 12.985895 0.188159 6.053622 0.000001 -9.027429 -0.000007 -3.436724 -0.109978 4.058775 -0.000003 -11.606762 -1.160658 -15.894977 2.017832 3.507768 -0.000001 -7.471606 -0.653694 -18.770212 4.433158 -1.319007 -0.000006 -7.386192 -1.302389 -7.844847 0.509426 -1.026534 0.000004 -9.728104 0.000008 0.000000 0.000000 0.000000 -0.000004 -8.290539 -5.270926 -0.000008 16.885180 20.564057 -19.261074 -0.000029 -0.000002 -92.707537 -48.343167 -101.270368 -30.691706 -0.000027 0.000020 -34.432039 -9.200754 -6.255393 -20.216938 0.000003 0.000022 4.241857 -17.358075 13.961085 -4.948805 2.881337 -3.679859 -0.000013 -0.000005 0.000001 -13.196846 0.000018 0.084613 -0.000014 -0.000003 -0.000001 -0.000006 -8.290543 -5.270926 -0.000004 -8.441488 -18.210662 19.261082 -0.000003 -0.000008 -83.125178 57.917682 84.351327 30.691719 -0.000018 -0.000015 -38.066615 4.391740 3.431947 20.216921 -0.000039 -0.000009 2.151955 12.544315 -9.815424 4.948800 2.881344 -3.679867 0.000005 0.000003 -0.000009 13.196851 0.000018 0.084630 0.000000 -0.000001 -0.000004 -10.083052 -0.000011 0.000001 -86.055650 2.122733 21.806281 -0.000013 47.042511 0.000025 70.815804 -0.000005 -0.000005 0.000010 38.766422 -0.000002 -11.001818 5.591355 -2.545424 0.000015 3.531212 -0.000013 0.000000 -0.000003 0.000001 0.000012 -0.000017 -13.829356 3.143786 -0.000002 0.000001 0.000008 -0.000007 -4.034173 0.000002 0.000000 -0.000001 10.083081 0.000012 0.000015 -81.539823 -11.567495 -12.651040 0.000017 47.042465 0.000015 66.913519 0.000001 -0.000005 -0.000009 38.766392 -0.000010 -16.538972 -15.105541 4.606516 -0.000001 3.531212 0.000014 0.000001 0.000001 -0.000000 0.000021 0.000005 -13.829381 4.356456 0.000002 0.000000 0.000021 -0.000008 -4.855053 0.000000 0.000001 0.000000 
-62.537174 -178.790848 -77.671265 126.232414 1.963911 -1.510790 -0.000007 -12.181958 2.015595 23.639066 -0.238873 0.141302 0.000005 -8.890328 1.567639 12.628876 -0.174808 -0.075914 0.000002 -8.993065 0.786781 13.044954 0.285035 6.038556 0.000005 -9.027427 0.000018 -3.452928 -0.085713 4.028211 -0.000005 -11.606704 -1.160673 -15.977590 1.992524 3.588417 -0.000007 -7.471615 -0.653710 -18.763156 4.361971 -1.322219 -0.000007 -7.386189 -1.302401 -7.828054 0.500785 -1.016925 0.000004 -9.728088 0.000029 -0.000000 0.000000 -0.000001 -0.000003 -8.290516 -5.270915 -0.000005 16.899444 20.565437 -19.261082 -0.000024 0.000018 -92.731825 -48.411575 -101.214934 -30.691717 0.000019 0.000022 -34.542702 -9.360892 -6.388597 -20.216928 -0.000027 -0.000026 4.279240 -17.424449 14.029745 -4.948799 2.881342 -3.679879 -0.000001 0.000014 0.000001 -13.196843 0.000010 0.084566 -0.000006 -0.000002 0.000003 -0.000001 -8.290520 -5.270915 -0.000000 -8.397467 -18.169278 19.261087 -0.000014 -0.000016 -82.928141 57.977808 84.067806 30.691719 -0.000003 -0.000005 -37.996759 4.297778 3.350417 20.216932 -0.000039 -0.000010 2.171648 12.500751 -9.936873 4.948805 2.881320 -3.679864 -0.000001 0.000003 -0.000002 13.196829 -0.000011 0.084619 0.000000 -0.000001 -0.000003 -10.083067 0.000011 0.000023 -85.487146 1.834542 22.039661 0.000040 47.042519 0.000024 69.312562 -0.000004 -0.000003 0.000001 38.766415 -0.000066 -10.641809 5.882804 -2.185474 -0.000008 3.531212 0.000010 0.000000 -0.000004 -0.000002 -0.000029 0.000014 -13.829338 2.855594 0.000001 0.000002 -0.000007 0.000001 -4.034173 0.000000 0.000007 -0.000002 10.083063 0.000002 0.000025 -81.485379 -11.557470 -12.742371 -0.000008 47.042519 -0.000007 66.808129 -0.000003 -0.000004 0.000001 38.766418 0.000021 -16.348543 -15.081307 4.907497 -0.000008 3.531212 -0.000006 0.000002 0.000005 -0.000001 0.000012 0.000014 -13.829359 4.368668 0.000004 -0.000001 -0.000012 -0.000008 -4.855087 -0.000001 -0.000001 0.000000 
-62.970867 -178.781876 -77.615105 126.204315 1.837424 -1.679231 0.000009 -12.181963 2.015522 23.647085 -0.195724 0.089839 0.000012 -8.890302 1.567613 12.617994 -0.166627 -0.078882 0.000008 -8.993075 0.786798 13.063661 0.368862 6.045252 0.000003 -9.027426 -0.000014 -3.459257 -0.052292 4.027405 0.000021 -11.606742 -1.160699 -16.023168 1.934033 3.589978 -0.000005 -7.471601 -0.653695 -18.746578 4.277642 -1.315417 0.000004 -7.386228 -1.302377 -7.835087 0.492639 -1.006224 0.000008 -9.728088 0.000019 0.000004 -0.000001 0.000000 0.000005 -8.290512 -5.270947 -0.000006 16.866654 20.527898 -19.261084 -0.000022 0.000012 -92.695851 -48.284301 -101.153688 -30.691685 -0.000034 -0.000001 -34.439108 -9.482977 -6.445653 -20.216917 -0.000003 -0.000001 4.291839 -17.460861 14.042241 -4.948816 2.881331 -3.679897 0.000003 0.000009 -0.000001 -13.196847 0.000007 0.084591 0.000003 -0.000002 -0.000001 -0.000001 -8.290516 -5.270947 -0.000004 -8.385262 -18.167311 19.261076 0.000005 -0.000007 -82.719567 57.919150 83.791914 30.691708 -0.000006 0.000008 -37.962410 4.221451 3.287108 20.216913 -0.000033 -0.000012 2.168031 12.452443 -9.957745 4.948793 2.881330 -3.679878 -0.000004 -0.000007 0.000002 13.196846 -0.000017 0.084591 -0.000001 -0.000003 -0.000000 -10.083065 0.000004 -0.000027 -84.840771 1.666409 22.256750 -0.000016 47.042511 0.000009 67.655769 -0.000004 -0.000006 0.000012 38.766403 -0.000019 -10.226528 6.064218 -1.940258 -0.000000 3.531212 -0.000009 0.000000 -0.000001 -0.000001 0.000001 0.000027 -13.829355 2.730171 0.000002 -0.000001 0.000005 -0.000008 -4.034196 -0.000000 0.000001 0.000000 10.083079 0.000024 -0.000035 -81.442527 -11.536959 -12.866049 -0.000008 47.042465 -0.000003 66.744158 -0.000001 -0.000004 0.000003 38.766422 0.000009 -16.208094 -15.032929 5.149931 0.000002 3.531212 0.000010 0.000001 0.000001 0.000001 0.000014 0.000021 -13.829391 4.501471 0.000006 0.000000 0.000020 -0.000008 -4.855060 -0.000001 0.000003 -0.000000 
-63.426659 -178.766159 -77.554329 126.128145 1.687882 -1.822064 0.000001 -12.181957 2.015581 23.706608 -0.171942 0.041468 0.000013 -8.890293 1.567582 12.598683 -0.156986 -0.092739 0.000009 -8.993099 0.786783 13.050342 0.509513 6.002176 0.000005 -9.027410 -0.000013 -3.442936 -0.013990 4.035745 0.000007 -11.606734 -1.160647 -16.019725 1.862993 3.643851 -0.000005 -7.471616 -0.653673 -18.731261 4.161503 -1.376272 -0.000009 -7.386198 -1.302409 -7.877649 0.487372 -1.017428 -0.000010 -9.728104 -0.000008 0.000002 -0.000002 0.000001 0.000011 -8.290497 -5.270894 -0.000007 16.780889 20.508987 -19.261086 -0.000031 -0.000002 -92.736757 -48.277918 -101.168461 -30.691698 0.000011 0.000011 -34.502957 -9.548558 -6.504828 -20.216930 -0.000004 0.000012 4.340069 -17.520921 14.149048 -4.948787 2.881345 -3.679888 -0.000007 -0.000005 0.000005 -13.196834 0.000005 0.084600 -0.000003 -0.000003 -0.000003 0.000016 -8.290501 -5.270887 -0.000001 -8.455694 -18.079620 19.261072 -0.000041 -0.000007 -82.063316 59.064819 83.111750 30.691719 -0.000020 -0.000005 -39.065236 4.333559 3.509663 20.216919 -0.000044 -0.000015 2.213036 12.321898 -10.264115 4.948781 2.881344 -3.679856 -0.000006 0.000005 -0.000003 13.196842 -0.000006 0.084621 -0.000003 -0.000001 -0.000004 -10.083081 0.000022 0.000020 -84.076589 1.634008 22.476201 0.000019 47.042542 0.000017 65.809781 -0.000005 -0.000005 -0.000020 38.766411 -0.000007 -9.727701 6.105099 -1.594276 -0.000023 3.531219 -0.000047 -0.000000 -0.000000 -0.000003 -0.000004 -0.000004 -13.829362 2.579957 0.000002 -0.000001 -0.000034 0.000008 -4.034153 0.000001 0.000001 -0.000001 10.083065 0.000002 -0.000000 -81.360442 -11.529820 -13.010180 0.000006 47.042503 0.000000 66.682037 0.000001 -0.000005 -0.000008 38.766396 -0.000032 -16.120358 -14.944688 5.373005 0.000027 3.531204 -0.000009 0.000000 0.000006 0.000000 0.000004 -0.000006 -13.829413 4.672850 -0.000003 0.000000 0.000008 0.000008 -4.855055 0.000000 0.000003 -0.000001 
